<svg width="18" height="34" viewBox="0 0 18 34" fill="none" xmlns="http://www.w3.org/2000/svg">
<path d="M3.121 14.6719C2.20136 15.5106 1.43441 16.6828 0.889489 18.0825C0.34457 19.4822 0.0388614 21.0652 0 22.6885C0 28.5255 4.037 33.2764 9 33.2764C13.963 33.2764 18 28.5255 18 22.6885C17.9508 21.0688 17.6408 19.4918 17.0969 18.0946C16.5529 16.6975 15.7916 15.5225 14.879 14.6719C13.9698 13.7143 13.2312 12.4317 12.7289 10.938C12.2266 9.44441 11.9762 7.78613 12 6.11076V3.02513H13C13.2652 3.02513 13.5196 2.86577 13.7071 2.58211C13.8946 2.29845 14 1.91372 14 1.51256C14 1.11141 13.8946 0.726681 13.7071 0.44302C13.5196 0.159359 13.2652 0 13 0H5C4.73478 0 4.48043 0.159359 4.29289 0.44302C4.10536 0.726681 4 1.11141 4 1.51256C4 1.91372 4.10536 2.29845 4.29289 2.58211C4.48043 2.86577 4.73478 3.02513 5 3.02513H6V6.11076C6.02352 7.78606 5.77302 9.4442 5.27075 10.9378C4.76848 12.4313 4.03001 13.714 3.121 14.6719ZM9 30.2513C5.829 30.2513 2.1 27.5287 2.008 22.8518C4.08866 23.8477 6.33064 23.7523 8.371 22.5811C10.7781 21.2248 13.3821 20.8732 15.91 21.5631L15.918 21.6161C16.629 26.541 12.857 30.2513 9 30.2513ZM10 3.02513V6.11076C9.97637 8.28256 10.308 10.4295 10.9654 12.3607C11.6228 14.2918 12.5855 15.9472 13.768 17.1797C14.0946 17.5096 14.3993 17.8865 14.678 18.3051C12.2851 17.9672 9.87288 18.4688 7.629 19.7707C5.98399 20.7108 4.17501 20.7642 2.507 19.922C2.93237 18.8185 3.52326 17.8818 4.232 17.1873C5.41501 15.9538 6.37806 14.2971 7.03546 12.3646C7.69285 10.4321 8.0242 8.28377 8 6.11076V3.02513H10ZM12 25.7136C12 26.0128 11.9414 26.3052 11.8315 26.5539C11.7216 26.8027 11.5654 26.9965 11.3827 27.111C11.2 27.2255 10.9989 27.2555 10.8049 27.1971C10.6109 27.1387 10.4327 26.9947 10.2929 26.7831C10.153 26.5716 10.0578 26.3021 10.0192 26.0087C9.98063 25.7153 10.0004 25.4112 10.0761 25.1348C10.1518 24.8584 10.28 24.6222 10.4444 24.4559C10.6089 24.2897 10.8022 24.201 11 24.201C11.2652 24.201 11.5196 24.3604 11.7071 24.6441C11.8946 24.9277 12 25.3124 12 25.7136ZM8 15.1256C8 14.8265 8.05865 14.5341 8.16853 14.2853C8.27841 14.0366 8.43459 13.8427 8.61732 13.7282C8.80004 13.6137 9.00111 13.5838 9.19509 13.6421C9.38907 13.7005 9.56726 13.8446 9.70711 14.0561C9.84696 14.2676 9.9422 14.5372 9.98079 14.8306C10.0194 15.124 9.99957 15.4281 9.92388 15.7045C9.84819 15.9809 9.72002 16.2171 9.55557 16.3833C9.39112 16.5495 9.19778 16.6382 9 16.6382C8.73478 16.6382 8.48043 16.4789 8.29289 16.1952C8.10536 15.9115 8 15.5268 8 15.1256Z" fill="black"/>
</svg>
