<svg width="46" height="46" viewBox="0 0 46 46" fill="none" xmlns="http://www.w3.org/2000/svg">
<g filter="url(#filter0_dd_55_931)">
<rect x="3" y="2" width="40" height="40" rx="6" fill="#B2DDFF"/>
<rect x="3.5" y="2.5" width="39" height="39" rx="5.5" stroke="#84CAFF"/>
<path fill-rule="evenodd" clip-rule="evenodd" d="M22.9932 15.1358C20.9938 12.7984 17.6597 12.1696 15.1547 14.31C12.6496 16.4504 12.297 20.029 14.2642 22.5604C15.8998 24.6651 20.8498 29.1041 22.4721 30.5408C22.6536 30.7016 22.7444 30.7819 22.8502 30.8135C22.9426 30.8411 23.0437 30.8411 23.1361 30.8135C23.2419 30.7819 23.3327 30.7016 23.5142 30.5408C25.1365 29.1041 30.0865 24.6651 31.7221 22.5604C33.6893 20.029 33.3797 16.4279 30.8316 14.31C28.2835 12.1922 24.9925 12.7984 22.9932 15.1358Z" stroke="#FDFDFD" stroke-width="1.66667" stroke-linecap="round" stroke-linejoin="round"/>
</g>
<defs>
<filter id="filter0_dd_55_931" x="0" y="0" width="46" height="46" filterUnits="userSpaceOnUse" color-interpolation-filters="sRGB">
<feFlood flood-opacity="0" result="BackgroundImageFix"/>
<feColorMatrix in="SourceAlpha" type="matrix" values="0 0 0 0 0 0 0 0 0 0 0 0 0 0 0 0 0 0 127 0" result="hardAlpha"/>
<feMorphology radius="1" operator="erode" in="SourceAlpha" result="effect1_dropShadow_55_931"/>
<feOffset dy="1"/>
<feGaussianBlur stdDeviation="1"/>
<feColorMatrix type="matrix" values="0 0 0 0 0.0392157 0 0 0 0 0.0496732 0 0 0 0 0.0705882 0 0 0 0.1 0"/>
<feBlend mode="normal" in2="BackgroundImageFix" result="effect1_dropShadow_55_931"/>
<feColorMatrix in="SourceAlpha" type="matrix" values="0 0 0 0 0 0 0 0 0 0 0 0 0 0 0 0 0 0 127 0" result="hardAlpha"/>
<feOffset dy="1"/>
<feGaussianBlur stdDeviation="1.5"/>
<feColorMatrix type="matrix" values="0 0 0 0 0.0392157 0 0 0 0 0.0496732 0 0 0 0 0.0705882 0 0 0 0.1 0"/>
<feBlend mode="normal" in2="effect1_dropShadow_55_931" result="effect2_dropShadow_55_931"/>
<feBlend mode="normal" in="SourceGraphic" in2="effect2_dropShadow_55_931" result="shape"/>
</filter>
</defs>
</svg>
