<svg width="46" height="46" viewBox="0 0 46 46" fill="none" xmlns="http://www.w3.org/2000/svg">
<g filter="url(#filter0_dd_74_1071)">
<rect x="3" y="2" width="40" height="40" rx="6" fill="#B2DDFF"/>
<rect x="3.5" y="2.5" width="39" height="39" rx="5.5" stroke="#84CAFF"/>
<path d="M33 31V29C33 27.1362 31.7252 25.5701 30 25.126M26.5 13.2908C27.9659 13.8841 29 15.3213 29 17C29 18.6787 27.9659 20.1159 26.5 20.7092M28 31C28 29.1362 28 28.2044 27.6955 27.4693C27.2895 26.4892 26.5108 25.7105 25.5307 25.3045C24.7957 25 23.8638 25 22 25H19C17.1362 25 16.2044 25 15.4693 25.3045C14.4892 25.7105 13.7105 26.4892 13.3045 27.4693C13 28.2044 13 29.1362 13 31M24.5 17C24.5 19.2091 22.7091 21 20.5 21C18.2909 21 16.5 19.2091 16.5 17C16.5 14.7909 18.2909 13 20.5 13C22.7091 13 24.5 14.7909 24.5 17Z" stroke="#FDFDFD" stroke-width="1.66667" stroke-linecap="round" stroke-linejoin="round"/>
</g>
<defs>
<filter id="filter0_dd_74_1071" x="0" y="0" width="46" height="46" filterUnits="userSpaceOnUse" color-interpolation-filters="sRGB">
<feFlood flood-opacity="0" result="BackgroundImageFix"/>
<feColorMatrix in="SourceAlpha" type="matrix" values="0 0 0 0 0 0 0 0 0 0 0 0 0 0 0 0 0 0 127 0" result="hardAlpha"/>
<feMorphology radius="1" operator="erode" in="SourceAlpha" result="effect1_dropShadow_74_1071"/>
<feOffset dy="1"/>
<feGaussianBlur stdDeviation="1"/>
<feColorMatrix type="matrix" values="0 0 0 0 0.0392157 0 0 0 0 0.0496732 0 0 0 0 0.0705882 0 0 0 0.1 0"/>
<feBlend mode="normal" in2="BackgroundImageFix" result="effect1_dropShadow_74_1071"/>
<feColorMatrix in="SourceAlpha" type="matrix" values="0 0 0 0 0 0 0 0 0 0 0 0 0 0 0 0 0 0 127 0" result="hardAlpha"/>
<feOffset dy="1"/>
<feGaussianBlur stdDeviation="1.5"/>
<feColorMatrix type="matrix" values="0 0 0 0 0.0392157 0 0 0 0 0.0496732 0 0 0 0 0.0705882 0 0 0 0.1 0"/>
<feBlend mode="normal" in2="effect1_dropShadow_74_1071" result="effect2_dropShadow_74_1071"/>
<feBlend mode="normal" in="SourceGraphic" in2="effect2_dropShadow_74_1071" result="shape"/>
</filter>
</defs>
</svg>
