<svg width="39" height="39" viewBox="0 0 39 39" fill="none" xmlns="http://www.w3.org/2000/svg">
<path d="M8.125 16.25V26.0182C8.125 26.6015 8.125 26.8931 8.21381 27.1506C8.29235 27.3783 8.42053 27.5857 8.58907 27.7578C8.77966 27.9524 9.04053 28.0828 9.56224 28.3437L18.3372 32.7312C18.7636 32.9443 18.9768 33.0509 19.2004 33.0929C19.3984 33.13 19.6016 33.13 19.7996 33.0929C20.0232 33.0509 20.2364 32.9443 20.6628 32.7312L29.4378 28.3437C29.9595 28.0828 30.2203 27.9524 30.4109 27.7578C30.5795 27.5857 30.7076 27.3783 30.7862 27.1506C30.875 26.8931 30.875 26.6015 30.875 26.0182V16.25M3.25 13.8125L18.9186 5.97823C19.1318 5.87165 19.2384 5.81836 19.3502 5.79738C19.4492 5.7788 19.5508 5.7788 19.6498 5.79738C19.7616 5.81836 19.8682 5.87165 20.0814 5.97823L35.75 13.8125L20.0814 21.6469C19.8682 21.7534 19.7616 21.8067 19.6498 21.8277C19.5508 21.8463 19.4492 21.8463 19.3502 21.8277C19.2384 21.8067 19.1318 21.7534 18.9186 21.6469L3.25 13.8125Z" stroke="black" stroke-width="2" stroke-linecap="round" stroke-linejoin="round"/>
<rect x="35" y="13" width="2" height="11" rx="1" fill="black"/>
</svg>
