<svg width="46" height="46" viewBox="0 0 46 46" fill="none" xmlns="http://www.w3.org/2000/svg">
<g filter="url(#filter0_dd_74_1083)">
<rect x="3" y="2" width="40" height="40" rx="6" fill="#B2DDFF"/>
<rect x="3.5" y="2.5" width="39" height="39" rx="5.5" stroke="#84CAFF"/>
<path d="M23 31L22.8999 30.8499C22.2053 29.808 21.858 29.287 21.3991 28.9098C20.9929 28.5759 20.5248 28.3254 20.0216 28.1726C19.4533 28 18.8271 28 17.5748 28H16.2C15.0799 28 14.5198 28 14.092 27.782C13.7157 27.5903 13.4097 27.2843 13.218 26.908C13 26.4802 13 25.9201 13 24.8V16.2C13 15.0799 13 14.5198 13.218 14.092C13.4097 13.7157 13.7157 13.4097 14.092 13.218C14.5198 13 15.0799 13 16.2 13H16.6C18.8402 13 19.9603 13 20.816 13.436C21.5686 13.8195 22.1805 14.4314 22.564 15.184C23 16.0397 23 17.1598 23 19.4M23 31V19.4M23 31L23.1001 30.8499C23.7947 29.808 24.142 29.287 24.6009 28.9098C25.0071 28.5759 25.4752 28.3254 25.9784 28.1726C26.5468 28 27.1729 28 28.4252 28H29.8C30.9201 28 31.4802 28 31.908 27.782C32.2843 27.5903 32.5903 27.2843 32.782 26.908C33 26.4802 33 25.9201 33 24.8V16.2C33 15.0799 33 14.5198 32.782 14.092C32.5903 13.7157 32.2843 13.4097 31.908 13.218C31.4802 13 30.9201 13 29.8 13H29.4C27.1598 13 26.0397 13 25.184 13.436C24.4314 13.8195 23.8195 14.4314 23.436 15.184C23 16.0397 23 17.1598 23 19.4" stroke="#FDFDFD" stroke-width="1.66667" stroke-linecap="round" stroke-linejoin="round"/>
</g>
<defs>
<filter id="filter0_dd_74_1083" x="0" y="0" width="46" height="46" filterUnits="userSpaceOnUse" color-interpolation-filters="sRGB">
<feFlood flood-opacity="0" result="BackgroundImageFix"/>
<feColorMatrix in="SourceAlpha" type="matrix" values="0 0 0 0 0 0 0 0 0 0 0 0 0 0 0 0 0 0 127 0" result="hardAlpha"/>
<feMorphology radius="1" operator="erode" in="SourceAlpha" result="effect1_dropShadow_74_1083"/>
<feOffset dy="1"/>
<feGaussianBlur stdDeviation="1"/>
<feColorMatrix type="matrix" values="0 0 0 0 0.0392157 0 0 0 0 0.0496732 0 0 0 0 0.0705882 0 0 0 0.1 0"/>
<feBlend mode="normal" in2="BackgroundImageFix" result="effect1_dropShadow_74_1083"/>
<feColorMatrix in="SourceAlpha" type="matrix" values="0 0 0 0 0 0 0 0 0 0 0 0 0 0 0 0 0 0 127 0" result="hardAlpha"/>
<feOffset dy="1"/>
<feGaussianBlur stdDeviation="1.5"/>
<feColorMatrix type="matrix" values="0 0 0 0 0.0392157 0 0 0 0 0.0496732 0 0 0 0 0.0705882 0 0 0 0.1 0"/>
<feBlend mode="normal" in2="effect1_dropShadow_74_1083" result="effect2_dropShadow_74_1083"/>
<feBlend mode="normal" in="SourceGraphic" in2="effect2_dropShadow_74_1083" result="shape"/>
</filter>
</defs>
</svg>
