<svg width="21" height="32" viewBox="0 0 21 32" fill="none" xmlns="http://www.w3.org/2000/svg">
<path d="M18.6824 16.9277V21.4672C18.6824 24.1107 17.9935 26.646 16.7672 28.5153C15.5409 30.3846 13.8778 31.4347 12.1436 31.4347C10.4093 31.4347 8.74617 30.3846 7.5199 28.5153C6.29363 26.646 5.60472 24.1107 5.60472 21.4672V19.9293C4.05027 19.5855 2.62879 18.401 1.59981 16.5919C0.570832 14.7829 0.00300408 12.47 0 10.0757V1.53209C0 1.15444 0.0984159 0.792254 0.273597 0.525215C0.448779 0.258175 0.686376 0.108154 0.93412 0.108154H3.73648C3.98422 0.108154 4.22182 0.258175 4.397 0.525215C4.57218 0.792254 4.6706 1.15444 4.6706 1.53209C4.6706 1.90974 4.57218 2.27192 4.397 2.53896C4.22182 2.806 3.98422 2.95602 3.73648 2.95602H1.86824V10.0757C1.86824 11.9639 2.36032 13.7749 3.23623 15.1101C4.11213 16.4453 5.30012 17.1954 6.53884 17.1954C7.77756 17.1954 8.96554 16.4453 9.84145 15.1101C10.7174 13.7749 11.2094 11.9639 11.2094 10.0757V2.95602H9.3412C9.09345 2.95602 8.85586 2.806 8.68067 2.53896C8.50549 2.27192 8.40708 1.90974 8.40708 1.53209C8.40708 1.15444 8.50549 0.792254 8.68067 0.525215C8.85586 0.258175 9.09345 0.108154 9.3412 0.108154H12.1436C12.3913 0.108154 12.6289 0.258175 12.8041 0.525215C12.9793 0.792254 13.0777 1.15444 13.0777 1.53209V10.0757C13.0747 12.47 12.5068 14.7829 11.4779 16.5919C10.4489 18.401 9.02741 19.5855 7.47296 19.9293V21.4672C7.47296 23.3554 7.96504 25.1663 8.84094 26.5015C9.71685 27.8367 10.9048 28.5868 12.1436 28.5868C13.3823 28.5868 14.5703 27.8367 15.4462 26.5015C16.3221 25.1663 16.8142 23.3554 16.8142 21.4672V16.9277C16.1909 16.5918 15.6656 15.9308 15.3311 15.0616C14.9966 14.1924 14.8745 13.171 14.9863 12.1778C15.0981 11.1846 15.4366 10.2836 15.942 9.63412C16.4474 8.98461 17.0872 8.62837 17.7483 8.62837C18.4093 8.62837 19.0491 8.98461 19.5545 9.63412C20.06 10.2836 20.3985 11.1846 20.5103 12.1778C20.6221 13.171 20.4999 14.1924 20.1654 15.0616C19.8309 15.9308 19.3057 16.5918 18.6824 16.9277Z" fill="black"/>
</svg>
